<mxfile host="Electron" modified="2024-02-05T21:12:40.148Z" agent="Mozilla/5.0 (Windows NT 10.0; Win64; x64) AppleWebKit/537.36 (KHTML, like Gecko) draw.io/23.0.2 Chrome/120.0.6099.109 Electron/28.1.0 Safari/537.36" etag="h_jBJzGDmt2IZVdiv9Dj" version="23.0.2" type="device">
  <diagram name="ページ1" id="LE8fIzdrHe0wcv1LTvfw">
    <mxGraphModel dx="2474" dy="1480" grid="1" gridSize="10" guides="1" tooltips="1" connect="1" arrows="1" fold="1" page="1" pageScale="1" pageWidth="1600" pageHeight="1200" math="0" shadow="0">
      <root>
        <mxCell id="0" />
        <mxCell id="cFaB45KztUIKXS-_cTrr-4" value="背景" style="locked=1;" parent="0" />
        <mxCell id="cFaB45KztUIKXS-_cTrr-5" value="" style="rounded=0;whiteSpace=wrap;html=1;strokeWidth=3;" parent="cFaB45KztUIKXS-_cTrr-4" vertex="1">
          <mxGeometry x="14" y="8" width="1556" height="1180" as="geometry" />
        </mxCell>
        <mxCell id="cFaB45KztUIKXS-_cTrr-8" value="" style="rounded=0;whiteSpace=wrap;html=1;" parent="cFaB45KztUIKXS-_cTrr-4" vertex="1">
          <mxGeometry x="843" y="677" width="120" height="60" as="geometry" />
        </mxCell>
        <mxCell id="cFaB45KztUIKXS-_cTrr-9" value="ウインドウ" style="locked=1;" parent="0" />
        <mxCell id="cFaB45KztUIKXS-_cTrr-10" value="" style="rounded=0;whiteSpace=wrap;html=1;strokeWidth=3;" parent="cFaB45KztUIKXS-_cTrr-9" vertex="1">
          <mxGeometry x="8" y="7" width="1572" height="1180" as="geometry" />
        </mxCell>
        <mxCell id="cFaB45KztUIKXS-_cTrr-11" value="" style="rounded=0;whiteSpace=wrap;html=1;fillColor=#B3B3B3;fontColor=#333333;strokeColor=#666666;" parent="cFaB45KztUIKXS-_cTrr-9" vertex="1">
          <mxGeometry x="12" y="15" width="1564" height="60" as="geometry" />
        </mxCell>
        <mxCell id="cFaB45KztUIKXS-_cTrr-12" value="&lt;font style=&quot;font-size: 48px;&quot;&gt;×&lt;/font&gt;" style="rounded=0;whiteSpace=wrap;html=1;" parent="cFaB45KztUIKXS-_cTrr-9" vertex="1">
          <mxGeometry x="1519" y="24" width="40" height="40" as="geometry" />
        </mxCell>
        <mxCell id="cFaB45KztUIKXS-_cTrr-14" value="名称未設定レイヤ" style="" parent="0" />
        <mxCell id="HvR4dSRWBfD3urc1JDpB-15" value="&lt;span style=&quot;font-size: 30px;&quot;&gt;送信&lt;/span&gt;" style="rounded=1;whiteSpace=wrap;html=1;" parent="cFaB45KztUIKXS-_cTrr-14" vertex="1">
          <mxGeometry x="1343" y="1060" width="210" height="60" as="geometry" />
        </mxCell>
        <mxCell id="HvR4dSRWBfD3urc1JDpB-16" value="&lt;span style=&quot;font-size: 30px;&quot;&gt;キャンセル&lt;/span&gt;" style="rounded=1;whiteSpace=wrap;html=1;" parent="cFaB45KztUIKXS-_cTrr-14" vertex="1">
          <mxGeometry x="1093" y="1060" width="210" height="60" as="geometry" />
        </mxCell>
        <mxCell id="CJZOtZTZ3qw7_Yt8c3Xf-5" value="&lt;span style=&quot;font-size: 30px;&quot;&gt;▼1日付&lt;/span&gt;" style="rounded=0;whiteSpace=wrap;html=1;align=left;" parent="cFaB45KztUIKXS-_cTrr-14" vertex="1">
          <mxGeometry x="73" y="446" width="137" height="48" as="geometry" />
        </mxCell>
        <mxCell id="xpxRe4hE-E19JAtTrHOt-9" value="&lt;span style=&quot;font-size: 30px;&quot;&gt;Upload&lt;/span&gt;" style="rounded=1;whiteSpace=wrap;html=1;fillColor=#FFFFFF;strokeWidth=3;" parent="cFaB45KztUIKXS-_cTrr-14" vertex="1">
          <mxGeometry x="1286" y="155" width="210" height="60" as="geometry" />
        </mxCell>
        <mxCell id="xpxRe4hE-E19JAtTrHOt-10" value="&lt;span style=&quot;font-size: 30px;&quot;&gt;サンプルとなるcsvファイルを表示&lt;/span&gt;" style="text;html=1;strokeColor=none;fillColor=none;align=left;verticalAlign=middle;whiteSpace=wrap;rounded=0;" parent="cFaB45KztUIKXS-_cTrr-14" vertex="1">
          <mxGeometry x="20" y="100" width="600" height="40" as="geometry" />
        </mxCell>
        <mxCell id="xpxRe4hE-E19JAtTrHOt-11" value="" style="rounded=0;whiteSpace=wrap;html=1;strokeWidth=3;" parent="cFaB45KztUIKXS-_cTrr-14" vertex="1">
          <mxGeometry x="50" y="155" width="1203" height="60" as="geometry" />
        </mxCell>
        <mxCell id="xpxRe4hE-E19JAtTrHOt-13" value="" style="childLayout=tableLayout;recursiveResize=0;shadow=0;fillColor=none;" parent="cFaB45KztUIKXS-_cTrr-14" vertex="1">
          <mxGeometry x="70" y="439" width="1360" height="240" as="geometry" />
        </mxCell>
        <mxCell id="xpxRe4hE-E19JAtTrHOt-38" style="shape=tableRow;horizontal=0;startSize=0;swimlaneHead=0;swimlaneBody=0;top=0;left=0;bottom=0;right=0;dropTarget=0;collapsible=0;recursiveResize=0;expand=0;fontStyle=0;fillColor=none;strokeColor=inherit;" parent="xpxRe4hE-E19JAtTrHOt-13" vertex="1">
          <mxGeometry width="1360" height="60" as="geometry" />
        </mxCell>
        <mxCell id="xpxRe4hE-E19JAtTrHOt-39" value="" style="connectable=0;recursiveResize=0;strokeColor=inherit;fillColor=none;align=center;whiteSpace=wrap;html=1;" parent="xpxRe4hE-E19JAtTrHOt-38" vertex="1">
          <mxGeometry width="160" height="60" as="geometry">
            <mxRectangle width="160" height="60" as="alternateBounds" />
          </mxGeometry>
        </mxCell>
        <mxCell id="xpxRe4hE-E19JAtTrHOt-40" style="connectable=0;recursiveResize=0;strokeColor=inherit;fillColor=none;align=center;whiteSpace=wrap;html=1;" parent="xpxRe4hE-E19JAtTrHOt-38" vertex="1">
          <mxGeometry x="160" width="190" height="60" as="geometry">
            <mxRectangle width="190" height="60" as="alternateBounds" />
          </mxGeometry>
        </mxCell>
        <mxCell id="xpxRe4hE-E19JAtTrHOt-41" style="connectable=0;recursiveResize=0;strokeColor=inherit;fillColor=none;align=center;whiteSpace=wrap;html=1;" parent="xpxRe4hE-E19JAtTrHOt-38" vertex="1">
          <mxGeometry x="350" width="170" height="60" as="geometry">
            <mxRectangle width="170" height="60" as="alternateBounds" />
          </mxGeometry>
        </mxCell>
        <mxCell id="xpxRe4hE-E19JAtTrHOt-42" style="connectable=0;recursiveResize=0;strokeColor=inherit;fillColor=none;align=center;whiteSpace=wrap;html=1;" parent="xpxRe4hE-E19JAtTrHOt-38" vertex="1">
          <mxGeometry x="520" width="258" height="60" as="geometry">
            <mxRectangle width="258" height="60" as="alternateBounds" />
          </mxGeometry>
        </mxCell>
        <mxCell id="xpxRe4hE-E19JAtTrHOt-43" style="connectable=0;recursiveResize=0;strokeColor=inherit;fillColor=none;align=center;whiteSpace=wrap;html=1;" parent="xpxRe4hE-E19JAtTrHOt-38" vertex="1">
          <mxGeometry x="778" width="194" height="60" as="geometry">
            <mxRectangle width="194" height="60" as="alternateBounds" />
          </mxGeometry>
        </mxCell>
        <mxCell id="xpxRe4hE-E19JAtTrHOt-44" style="connectable=0;recursiveResize=0;strokeColor=inherit;fillColor=none;align=center;whiteSpace=wrap;html=1;" parent="xpxRe4hE-E19JAtTrHOt-38" vertex="1">
          <mxGeometry x="972" width="194" height="60" as="geometry">
            <mxRectangle width="194" height="60" as="alternateBounds" />
          </mxGeometry>
        </mxCell>
        <mxCell id="xpxRe4hE-E19JAtTrHOt-45" style="connectable=0;recursiveResize=0;strokeColor=inherit;fillColor=none;align=center;whiteSpace=wrap;html=1;" parent="xpxRe4hE-E19JAtTrHOt-38" vertex="1">
          <mxGeometry x="1166" width="194" height="60" as="geometry">
            <mxRectangle width="194" height="60" as="alternateBounds" />
          </mxGeometry>
        </mxCell>
        <mxCell id="xpxRe4hE-E19JAtTrHOt-14" value="" style="shape=tableRow;horizontal=0;startSize=0;swimlaneHead=0;swimlaneBody=0;top=0;left=0;bottom=0;right=0;dropTarget=0;collapsible=0;recursiveResize=0;expand=0;fontStyle=0;fillColor=none;strokeColor=inherit;" parent="xpxRe4hE-E19JAtTrHOt-13" vertex="1">
          <mxGeometry y="60" width="1360" height="60" as="geometry" />
        </mxCell>
        <mxCell id="xpxRe4hE-E19JAtTrHOt-15" value="&lt;font style=&quot;font-size: 30px;&quot;&gt;年月日&lt;br&gt;&lt;/font&gt;" style="connectable=0;recursiveResize=0;strokeColor=inherit;fillColor=none;align=center;whiteSpace=wrap;html=1;" parent="xpxRe4hE-E19JAtTrHOt-14" vertex="1">
          <mxGeometry width="160" height="60" as="geometry">
            <mxRectangle width="160" height="60" as="alternateBounds" />
          </mxGeometry>
        </mxCell>
        <mxCell id="xpxRe4hE-E19JAtTrHOt-16" value="&lt;font style=&quot;font-size: 30px;&quot;&gt;お引出し&lt;/font&gt;" style="connectable=0;recursiveResize=0;strokeColor=inherit;fillColor=none;align=center;whiteSpace=wrap;html=1;" parent="xpxRe4hE-E19JAtTrHOt-14" vertex="1">
          <mxGeometry x="160" width="190" height="60" as="geometry">
            <mxRectangle width="190" height="60" as="alternateBounds" />
          </mxGeometry>
        </mxCell>
        <mxCell id="xpxRe4hE-E19JAtTrHOt-17" value="&lt;font style=&quot;font-size: 30px;&quot;&gt;お預入れ&lt;/font&gt;" style="connectable=0;recursiveResize=0;strokeColor=inherit;fillColor=none;align=center;whiteSpace=wrap;html=1;" parent="xpxRe4hE-E19JAtTrHOt-14" vertex="1">
          <mxGeometry x="350" width="170" height="60" as="geometry">
            <mxRectangle width="170" height="60" as="alternateBounds" />
          </mxGeometry>
        </mxCell>
        <mxCell id="xpxRe4hE-E19JAtTrHOt-35" value="&lt;font style=&quot;font-size: 30px;&quot;&gt;お取り扱い内容&lt;/font&gt;" style="connectable=0;recursiveResize=0;strokeColor=inherit;fillColor=none;align=center;whiteSpace=wrap;html=1;" parent="xpxRe4hE-E19JAtTrHOt-14" vertex="1">
          <mxGeometry x="520" width="258" height="60" as="geometry">
            <mxRectangle width="258" height="60" as="alternateBounds" />
          </mxGeometry>
        </mxCell>
        <mxCell id="xpxRe4hE-E19JAtTrHOt-32" value="&lt;font style=&quot;font-size: 30px;&quot;&gt;残高&lt;/font&gt;" style="connectable=0;recursiveResize=0;strokeColor=inherit;fillColor=none;align=center;whiteSpace=wrap;html=1;" parent="xpxRe4hE-E19JAtTrHOt-14" vertex="1">
          <mxGeometry x="778" width="194" height="60" as="geometry">
            <mxRectangle width="194" height="60" as="alternateBounds" />
          </mxGeometry>
        </mxCell>
        <mxCell id="xpxRe4hE-E19JAtTrHOt-29" value="&lt;font style=&quot;font-size: 30px;&quot;&gt;メモ&lt;/font&gt;" style="connectable=0;recursiveResize=0;strokeColor=inherit;fillColor=none;align=center;whiteSpace=wrap;html=1;" parent="xpxRe4hE-E19JAtTrHOt-14" vertex="1">
          <mxGeometry x="972" width="194" height="60" as="geometry">
            <mxRectangle width="194" height="60" as="alternateBounds" />
          </mxGeometry>
        </mxCell>
        <mxCell id="xpxRe4hE-E19JAtTrHOt-26" value="&lt;font style=&quot;font-size: 30px;&quot;&gt;ラベル&lt;/font&gt;" style="connectable=0;recursiveResize=0;strokeColor=inherit;fillColor=none;align=center;whiteSpace=wrap;html=1;" parent="xpxRe4hE-E19JAtTrHOt-14" vertex="1">
          <mxGeometry x="1166" width="194" height="60" as="geometry">
            <mxRectangle width="194" height="60" as="alternateBounds" />
          </mxGeometry>
        </mxCell>
        <mxCell id="xpxRe4hE-E19JAtTrHOt-18" style="shape=tableRow;horizontal=0;startSize=0;swimlaneHead=0;swimlaneBody=0;top=0;left=0;bottom=0;right=0;dropTarget=0;collapsible=0;recursiveResize=0;expand=0;fontStyle=0;fillColor=none;strokeColor=inherit;" parent="xpxRe4hE-E19JAtTrHOt-13" vertex="1">
          <mxGeometry y="120" width="1360" height="60" as="geometry" />
        </mxCell>
        <mxCell id="xpxRe4hE-E19JAtTrHOt-19" value="&lt;font style=&quot;font-size: 30px;&quot;&gt;2022.09.01&lt;/font&gt;" style="connectable=0;recursiveResize=0;strokeColor=inherit;fillColor=none;align=center;whiteSpace=wrap;html=1;" parent="xpxRe4hE-E19JAtTrHOt-18" vertex="1">
          <mxGeometry width="160" height="60" as="geometry">
            <mxRectangle width="160" height="60" as="alternateBounds" />
          </mxGeometry>
        </mxCell>
        <mxCell id="xpxRe4hE-E19JAtTrHOt-20" value="" style="connectable=0;recursiveResize=0;strokeColor=inherit;fillColor=none;align=center;whiteSpace=wrap;html=1;" parent="xpxRe4hE-E19JAtTrHOt-18" vertex="1">
          <mxGeometry x="160" width="190" height="60" as="geometry">
            <mxRectangle width="190" height="60" as="alternateBounds" />
          </mxGeometry>
        </mxCell>
        <mxCell id="xpxRe4hE-E19JAtTrHOt-21" value="&lt;font style=&quot;font-size: 30px;&quot;&gt;200,000&lt;/font&gt;" style="connectable=0;recursiveResize=0;strokeColor=inherit;fillColor=none;align=right;whiteSpace=wrap;html=1;" parent="xpxRe4hE-E19JAtTrHOt-18" vertex="1">
          <mxGeometry x="350" width="170" height="60" as="geometry">
            <mxRectangle width="170" height="60" as="alternateBounds" />
          </mxGeometry>
        </mxCell>
        <mxCell id="xpxRe4hE-E19JAtTrHOt-36" value="&lt;span style=&quot;font-size: 30px;&quot;&gt;振込　会社&lt;/span&gt;" style="connectable=0;recursiveResize=0;strokeColor=inherit;fillColor=none;align=left;whiteSpace=wrap;html=1;" parent="xpxRe4hE-E19JAtTrHOt-18" vertex="1">
          <mxGeometry x="520" width="258" height="60" as="geometry">
            <mxRectangle width="258" height="60" as="alternateBounds" />
          </mxGeometry>
        </mxCell>
        <mxCell id="xpxRe4hE-E19JAtTrHOt-33" value="&lt;font style=&quot;font-size: 30px;&quot;&gt;246,802&lt;/font&gt;" style="connectable=0;recursiveResize=0;strokeColor=inherit;fillColor=none;align=right;whiteSpace=wrap;html=1;" parent="xpxRe4hE-E19JAtTrHOt-18" vertex="1">
          <mxGeometry x="778" width="194" height="60" as="geometry">
            <mxRectangle width="194" height="60" as="alternateBounds" />
          </mxGeometry>
        </mxCell>
        <mxCell id="xpxRe4hE-E19JAtTrHOt-30" style="connectable=0;recursiveResize=0;strokeColor=inherit;fillColor=none;align=center;whiteSpace=wrap;html=1;" parent="xpxRe4hE-E19JAtTrHOt-18" vertex="1">
          <mxGeometry x="972" width="194" height="60" as="geometry">
            <mxRectangle width="194" height="60" as="alternateBounds" />
          </mxGeometry>
        </mxCell>
        <mxCell id="xpxRe4hE-E19JAtTrHOt-27" style="connectable=0;recursiveResize=0;strokeColor=inherit;fillColor=none;align=center;whiteSpace=wrap;html=1;" parent="xpxRe4hE-E19JAtTrHOt-18" vertex="1">
          <mxGeometry x="1166" width="194" height="60" as="geometry">
            <mxRectangle width="194" height="60" as="alternateBounds" />
          </mxGeometry>
        </mxCell>
        <mxCell id="xpxRe4hE-E19JAtTrHOt-22" style="shape=tableRow;horizontal=0;startSize=0;swimlaneHead=0;swimlaneBody=0;top=0;left=0;bottom=0;right=0;dropTarget=0;collapsible=0;recursiveResize=0;expand=0;fontStyle=0;fillColor=none;strokeColor=inherit;" parent="xpxRe4hE-E19JAtTrHOt-13" vertex="1">
          <mxGeometry y="180" width="1360" height="60" as="geometry" />
        </mxCell>
        <mxCell id="xpxRe4hE-E19JAtTrHOt-23" value="&lt;font style=&quot;font-size: 30px;&quot;&gt;2022.09.01&lt;/font&gt;" style="connectable=0;recursiveResize=0;strokeColor=inherit;fillColor=none;align=center;whiteSpace=wrap;html=1;" parent="xpxRe4hE-E19JAtTrHOt-22" vertex="1">
          <mxGeometry width="160" height="60" as="geometry">
            <mxRectangle width="160" height="60" as="alternateBounds" />
          </mxGeometry>
        </mxCell>
        <mxCell id="xpxRe4hE-E19JAtTrHOt-24" value="&lt;font style=&quot;font-size: 30px;&quot;&gt;1,357&lt;/font&gt;" style="connectable=0;recursiveResize=0;strokeColor=inherit;fillColor=none;align=right;whiteSpace=wrap;html=1;" parent="xpxRe4hE-E19JAtTrHOt-22" vertex="1">
          <mxGeometry x="160" width="190" height="60" as="geometry">
            <mxRectangle width="190" height="60" as="alternateBounds" />
          </mxGeometry>
        </mxCell>
        <mxCell id="xpxRe4hE-E19JAtTrHOt-25" value="" style="connectable=0;recursiveResize=0;strokeColor=inherit;fillColor=none;align=center;whiteSpace=wrap;html=1;" parent="xpxRe4hE-E19JAtTrHOt-22" vertex="1">
          <mxGeometry x="350" width="170" height="60" as="geometry">
            <mxRectangle width="170" height="60" as="alternateBounds" />
          </mxGeometry>
        </mxCell>
        <mxCell id="xpxRe4hE-E19JAtTrHOt-37" value="&lt;font style=&quot;font-size: 30px;&quot;&gt;引落し&lt;/font&gt;" style="connectable=0;recursiveResize=0;strokeColor=inherit;fillColor=none;align=left;whiteSpace=wrap;html=1;" parent="xpxRe4hE-E19JAtTrHOt-22" vertex="1">
          <mxGeometry x="520" width="258" height="60" as="geometry">
            <mxRectangle width="258" height="60" as="alternateBounds" />
          </mxGeometry>
        </mxCell>
        <mxCell id="xpxRe4hE-E19JAtTrHOt-34" value="&lt;font style=&quot;font-size: 30px;&quot;&gt;135,791&lt;/font&gt;" style="connectable=0;recursiveResize=0;strokeColor=inherit;fillColor=none;align=right;whiteSpace=wrap;html=1;" parent="xpxRe4hE-E19JAtTrHOt-22" vertex="1">
          <mxGeometry x="778" width="194" height="60" as="geometry">
            <mxRectangle width="194" height="60" as="alternateBounds" />
          </mxGeometry>
        </mxCell>
        <mxCell id="xpxRe4hE-E19JAtTrHOt-31" style="connectable=0;recursiveResize=0;strokeColor=inherit;fillColor=none;align=center;whiteSpace=wrap;html=1;" parent="xpxRe4hE-E19JAtTrHOt-22" vertex="1">
          <mxGeometry x="972" width="194" height="60" as="geometry">
            <mxRectangle width="194" height="60" as="alternateBounds" />
          </mxGeometry>
        </mxCell>
        <mxCell id="xpxRe4hE-E19JAtTrHOt-28" style="connectable=0;recursiveResize=0;strokeColor=inherit;fillColor=none;align=center;whiteSpace=wrap;html=1;" parent="xpxRe4hE-E19JAtTrHOt-22" vertex="1">
          <mxGeometry x="1166" width="194" height="60" as="geometry">
            <mxRectangle width="194" height="60" as="alternateBounds" />
          </mxGeometry>
        </mxCell>
        <mxCell id="xpxRe4hE-E19JAtTrHOt-46" value="&lt;span style=&quot;font-size: 30px;&quot;&gt;▼支出&lt;/span&gt;" style="rounded=0;whiteSpace=wrap;html=1;align=left;" parent="cFaB45KztUIKXS-_cTrr-14" vertex="1">
          <mxGeometry x="243" y="446" width="137" height="48" as="geometry" />
        </mxCell>
        <mxCell id="xpxRe4hE-E19JAtTrHOt-47" value="&lt;span style=&quot;font-size: 30px;&quot;&gt;▼収入&lt;/span&gt;" style="rounded=0;whiteSpace=wrap;html=1;align=left;" parent="cFaB45KztUIKXS-_cTrr-14" vertex="1">
          <mxGeometry x="440" y="446" width="137" height="48" as="geometry" />
        </mxCell>
        <mxCell id="xpxRe4hE-E19JAtTrHOt-48" value="&lt;span style=&quot;font-size: 30px;&quot;&gt;▼日付&lt;/span&gt;" style="rounded=0;whiteSpace=wrap;html=1;align=left;" parent="cFaB45KztUIKXS-_cTrr-14" vertex="1">
          <mxGeometry x="603" y="446" width="137" height="48" as="geometry" />
        </mxCell>
        <mxCell id="xpxRe4hE-E19JAtTrHOt-49" value="&lt;span style=&quot;font-size: 30px;&quot;&gt;▼日付&lt;/span&gt;" style="rounded=0;whiteSpace=wrap;html=1;align=left;" parent="cFaB45KztUIKXS-_cTrr-14" vertex="1">
          <mxGeometry x="855" y="447" width="137" height="48" as="geometry" />
        </mxCell>
        <mxCell id="xpxRe4hE-E19JAtTrHOt-50" value="&lt;span style=&quot;font-size: 30px;&quot;&gt;▼なし&lt;/span&gt;" style="rounded=0;whiteSpace=wrap;html=1;align=left;" parent="cFaB45KztUIKXS-_cTrr-14" vertex="1">
          <mxGeometry x="1051" y="446" width="137" height="48" as="geometry" />
        </mxCell>
        <mxCell id="xpxRe4hE-E19JAtTrHOt-51" value="&lt;span style=&quot;font-size: 30px;&quot;&gt;▼日付&lt;/span&gt;" style="rounded=0;whiteSpace=wrap;html=1;align=left;" parent="cFaB45KztUIKXS-_cTrr-14" vertex="1">
          <mxGeometry x="1253" y="447" width="137" height="48" as="geometry" />
        </mxCell>
        <mxCell id="xpxRe4hE-E19JAtTrHOt-52" value="&lt;span style=&quot;font-size: 30px;&quot;&gt;CSVと項目の結びつけ&lt;/span&gt;" style="rounded=0;whiteSpace=wrap;html=1;align=left;dashed=1;dashPattern=8 8;verticalAlign=bottom;" parent="cFaB45KztUIKXS-_cTrr-14" vertex="1">
          <mxGeometry x="53" y="239" width="437" height="46" as="geometry" />
        </mxCell>
        <mxCell id="xpxRe4hE-E19JAtTrHOt-53" value="&lt;div style=&quot;&quot;&gt;&lt;font style=&quot;font-size: 30px;&quot;&gt;スクロール&lt;/font&gt;&lt;/div&gt;" style="rounded=0;whiteSpace=wrap;html=1;align=left;verticalAlign=top;fillColor=#FFFFCC;" parent="cFaB45KztUIKXS-_cTrr-14" vertex="1">
          <mxGeometry x="69" y="682" width="1361" height="48" as="geometry" />
        </mxCell>
        <mxCell id="xpxRe4hE-E19JAtTrHOt-54" value="&lt;div style=&quot;&quot;&gt;&lt;br&gt;&lt;/div&gt;" style="rounded=0;whiteSpace=wrap;html=1;align=left;verticalAlign=top;fillColor=#FFFF66;" parent="cFaB45KztUIKXS-_cTrr-14" vertex="1">
          <mxGeometry x="253" y="691" width="290" height="29" as="geometry" />
        </mxCell>
        <mxCell id="xpxRe4hE-E19JAtTrHOt-55" value="&lt;span style=&quot;font-size: 30px;&quot;&gt;▼日付&lt;/span&gt;" style="rounded=0;whiteSpace=wrap;html=1;align=left;" parent="cFaB45KztUIKXS-_cTrr-14" vertex="1">
          <mxGeometry x="72" y="446" width="137" height="48" as="geometry" />
        </mxCell>
        <mxCell id="xpxRe4hE-E19JAtTrHOt-56" value="&lt;span style=&quot;font-size: 30px;&quot;&gt;形式名称&lt;/span&gt;" style="rounded=0;whiteSpace=wrap;html=1;align=right;dashed=1;dashPattern=8 8;verticalAlign=bottom;" parent="cFaB45KztUIKXS-_cTrr-14" vertex="1">
          <mxGeometry x="40" y="306" width="330" height="46" as="geometry" />
        </mxCell>
        <mxCell id="xpxRe4hE-E19JAtTrHOt-57" value="&lt;font style=&quot;font-size: 30px;&quot;&gt;▼首都圏信用金庫形式&lt;/font&gt;" style="rounded=0;whiteSpace=wrap;html=1;align=left;" parent="cFaB45KztUIKXS-_cTrr-14" vertex="1">
          <mxGeometry x="410" y="304" width="410" height="48" as="geometry" />
        </mxCell>
        <mxCell id="ZPJiOfHct4J0eFF9djsQ-0" value="&lt;span style=&quot;font-size: 30px;&quot;&gt;☑1行目はヘッダなので取り込まない&lt;/span&gt;" style="rounded=0;whiteSpace=wrap;html=1;align=left;dashed=1;dashPattern=8 8;verticalAlign=bottom;" vertex="1" parent="cFaB45KztUIKXS-_cTrr-14">
          <mxGeometry x="410" y="369" width="760" height="46" as="geometry" />
        </mxCell>
        <mxCell id="ZPJiOfHct4J0eFF9djsQ-2" value="&lt;span style=&quot;font-size: 30px;&quot;&gt;☑この結びつけ形式を保存できるよう申請する&lt;/span&gt;" style="rounded=0;whiteSpace=wrap;html=1;align=left;dashed=1;dashPattern=8 8;verticalAlign=bottom;" vertex="1" parent="cFaB45KztUIKXS-_cTrr-14">
          <mxGeometry x="70" y="769" width="760" height="46" as="geometry" />
        </mxCell>
        <mxCell id="ZPJiOfHct4J0eFF9djsQ-3" value="&lt;font style=&quot;font-size: 30px;&quot;&gt;お得Pay&lt;/font&gt;" style="rounded=0;whiteSpace=wrap;html=1;align=left;" vertex="1" parent="cFaB45KztUIKXS-_cTrr-14">
          <mxGeometry x="70" y="834" width="410" height="48" as="geometry" />
        </mxCell>
        <mxCell id="ZPJiOfHct4J0eFF9djsQ-4" value="&lt;span style=&quot;font-size: 30px;&quot;&gt;申請&lt;/span&gt;" style="rounded=1;whiteSpace=wrap;html=1;" vertex="1" parent="cFaB45KztUIKXS-_cTrr-14">
          <mxGeometry x="863" y="830" width="210" height="60" as="geometry" />
        </mxCell>
        <mxCell id="ZPJiOfHct4J0eFF9djsQ-5" value="&lt;span style=&quot;font-size: 30px;&quot;&gt;形式&lt;/span&gt;" style="rounded=0;whiteSpace=wrap;html=1;align=left;dashed=1;dashPattern=8 8;verticalAlign=bottom;" vertex="1" parent="cFaB45KztUIKXS-_cTrr-14">
          <mxGeometry x="510" y="836" width="200" height="46" as="geometry" />
        </mxCell>
      </root>
    </mxGraphModel>
  </diagram>
</mxfile>
